<?xml version="1.0" encoding="UTF-8"?>
<svg width="30mm" height="30mm" version="1.1" viewBox="0 0 30 30" xmlns="http://www.w3.org/2000/svg">
<g transform="matrix(.071488 0 0 .071488 -29.17 33.299)">
<g transform="matrix(.84114 0 0 .84114 412.25 -461.59)" fill="#fff">
<g fill="#fff">
<g fill="#fff">
<path d="m438.9 126.9-106.1-119.6c-4.2-5.2-9.4-7.3-15.6-7.3h-251.7c-11.4 0-20.8 9.4-20.8 20.8v447.3c0 11.4 9.4 20.8 20.8 20.8h357.9c11.4 0 19.8-9.4 20.8-19.8v-328.6c-0.1-5.2-2.1-9.4-5.3-13.6zm-101.9-53.3 40.7 46.1h-40.7zm65.5 374.8h-316.2v-407.8h210.1v98.8c0 11.4 9.4 20.8 20.8 20.8h85.3z"/>
<path d="m136.2 235.1c0 11.4 9.4 20.8 20.8 20.8h174.8c11.4 0 20.8-9.4 20.8-20.8s-9.4-20.8-20.8-20.8h-174.8c-11.4 0-20.8 9.4-20.8 20.8z"/>
<path d="m331.8 343.3h-174.8c-11.4 0-20.8 9.4-20.8 20.8s9.4 20.8 20.8 20.8h174.8c11.4 0 20.8-9.4 20.8-20.8s-9.4-20.8-20.8-20.8z"/>
</g>
</g>
</g>
</g>
</svg>
